<svg width="20" height="20" viewBox="0 0 20 20" fill="none" xmlns="http://www.w3.org/2000/svg">
<g clip-path="url(#clip0_0_3)">
<g clip-path="url(#clip1_0_3)">
<path d="M0 9.75C0 15.13 4.37 19.5 9.75 19.5C15.13 19.5 19.5 15.13 19.5 9.75C19.5 4.37 15.13 0 9.75 0C4.37 0 0 4.37 0 9.75Z" fill="#003D7C"/>
</g>
<path fill-rule="evenodd" clip-rule="evenodd" d="M11.89 6.94L18.8 6.93L13.23 11.02L15.38 17.58L9.77001 13.55L4.19001 17.62L6.29001 11.04L0.700012 6.99L7.61001 6.96L9.73001 0.380005L11.89 6.94Z" fill="white"/>
<rect width="3.34" height="3.34" rx="1.67" transform="matrix(1 0 0 -1 8.01749 11.545)" fill="#003D7C"/>
</g>
<defs>
<clipPath id="clip0_0_3">
<rect width="19.5" height="19.5" fill="white"/>
</clipPath>
<clipPath id="clip1_0_3">
<rect width="19.5" height="19.5" fill="white" transform="matrix(1 0 0 -1 0 19.5)"/>
</clipPath>
</defs>
</svg>
